<svg width="15" height="15" viewBox="0 0 15 15" fill="none" xmlns="http://www.w3.org/2000/svg">
<path d="M13.8906 12.8242C14.0547 12.9701 14.0547 13.125 13.8906 13.2891L13.2891 13.8906C13.125 14.0547 12.9701 14.0547 12.8242 13.8906L9.51562 10.582C9.44271 10.5091 9.40625 10.4362 9.40625 10.3633V9.98047C8.33073 10.9102 7.09115 11.375 5.6875 11.375C4.11979 11.375 2.77995 10.819 1.66797 9.70703C0.55599 8.59505 0 7.25521 0 5.6875C0 4.11979 0.55599 2.77995 1.66797 1.66797C2.77995 0.55599 4.11979 0 5.6875 0C7.25521 0 8.59505 0.55599 9.70703 1.66797C10.819 2.77995 11.375 4.11979 11.375 5.6875C11.375 7.09115 10.9102 8.33073 9.98047 9.40625H10.3633C10.4544 9.40625 10.5273 9.44271 10.582 9.51562L13.8906 12.8242ZM2.59766 8.77734C3.45443 9.63411 4.48438 10.0625 5.6875 10.0625C6.89062 10.0625 7.92057 9.63411 8.77734 8.77734C9.63411 7.92057 10.0625 6.89062 10.0625 5.6875C10.0625 4.48438 9.63411 3.45443 8.77734 2.59766C7.92057 1.74089 6.89062 1.3125 5.6875 1.3125C4.48438 1.3125 3.45443 1.74089 2.59766 2.59766C1.74089 3.45443 1.3125 4.48438 1.3125 5.6875C1.3125 6.89062 1.74089 7.92057 2.59766 8.77734Z" fill="#575757"/>
</svg>
